<svg width="34" height="22" viewBox="0 0 34 22" fill="none" xmlns="http://www.w3.org/2000/svg">
<path d="M1.22145 6.11324V4.95124H3.85345V15.0732H2.56545V6.11324H1.22145ZM5.70583 6.11324V4.95124H8.33783V15.0732H7.04983V6.11324H5.70583Z" fill="black"/>
<path d="M19.1177 2.64844C16.6638 2.64844 14.6738 4.61796 14.6738 7.04788C14.6738 9.0094 15.4515 13.6648 23.1065 18.3709C23.2437 18.4543 23.4011 18.4984 23.5616 18.4984C23.7221 18.4984 23.8795 18.4543 24.0166 18.3709C31.6717 13.6648 32.4493 9.0094 32.4493 7.04788C32.4493 4.61796 30.4594 2.64844 28.0055 2.64844C25.5516 2.64844 23.5616 5.31476 23.5616 5.31476C23.5616 5.31476 21.5716 2.64844 19.1177 2.64844Z" stroke="black" stroke-width="1.5" stroke-linecap="round" stroke-linejoin="round"/>
</svg>
