<svg width="16" height="14" viewBox="0 0 16 14" fill="none" xmlns="http://www.w3.org/2000/svg">
<path d="M5.08677 13.1135C5.40343 13.1135 5.66012 12.8568 5.66012 12.5401C5.66012 12.2235 5.40343 11.9668 5.08677 11.9668C4.77012 11.9668 4.51343 12.2235 4.51343 12.5401C4.51343 12.8568 4.77012 13.1135 5.08677 13.1135Z" stroke="white" stroke-linecap="round" stroke-linejoin="round"/>
<path d="M13.1136 13.1135C13.4303 13.1135 13.687 12.8568 13.687 12.5401C13.687 12.2235 13.4303 11.9668 13.1136 11.9668C12.797 11.9668 12.5403 12.2235 12.5403 12.5401C12.5403 12.8568 12.797 13.1135 13.1136 13.1135Z" stroke="white" stroke-linecap="round" stroke-linejoin="round"/>
<path d="M0.5 0.5H2.79339L4.51343 10.2469H13.687" stroke="white" stroke-linecap="round" stroke-linejoin="round"/>
<path d="M4.51339 7.18953H13.4519C13.5182 7.18957 13.5824 7.16664 13.6337 7.12462C13.685 7.08261 13.7202 7.02412 13.7332 6.95911L14.7652 1.79899C14.7735 1.75738 14.7725 1.71444 14.7622 1.67327C14.7519 1.6321 14.7327 1.59373 14.7057 1.56092C14.6788 1.52811 14.645 1.50168 14.6066 1.48355C14.5682 1.46542 14.5263 1.45603 14.4839 1.45605H3.3667" stroke="white" stroke-linecap="round" stroke-linejoin="round"/>
<path d="M10.3071 4.01296C10.4167 4.01296 10.5134 4.10969 10.5134 4.21933V4.42569C10.5134 4.54178 10.4167 4.63206 10.3071 4.63206H9.3784V5.56072C9.3784 5.6768 9.28167 5.76709 9.17203 5.76709H8.96566C8.84958 5.76709 8.75929 5.6768 8.75929 5.56072V4.63206H7.83064C7.71455 4.63206 7.62427 4.54178 7.62427 4.42569V4.21933C7.62427 4.10969 7.71455 4.01296 7.83064 4.01296H8.75929V3.0843C8.75929 2.97466 8.84958 2.87793 8.96566 2.87793H9.17203C9.28167 2.87793 9.3784 2.97466 9.3784 3.0843V4.01296H10.3071Z" fill="white"/>
</svg>
