<svg width="33" height="33" viewBox="0 0 33 33" fill="none" xmlns="http://www.w3.org/2000/svg">
<path d="M11.8574 27.5C12.4097 27.5 12.8574 27.0523 12.8574 26.5C12.8574 25.9477 12.4097 25.5 11.8574 25.5C11.3051 25.5 10.8574 25.9477 10.8574 26.5C10.8574 27.0523 11.3051 27.5 11.8574 27.5Z" stroke="#006838" stroke-width="1.5" stroke-linecap="round" stroke-linejoin="round"/>
<path d="M25.8574 27.5C26.4097 27.5 26.8574 27.0523 26.8574 26.5C26.8574 25.9477 26.4097 25.5 25.8574 25.5C25.3051 25.5 24.8574 25.9477 24.8574 26.5C24.8574 27.0523 25.3051 27.5 25.8574 27.5Z" stroke="#006838" stroke-width="1.5" stroke-linecap="round" stroke-linejoin="round"/>
<path d="M3.85742 5.5H7.85742L10.8574 22.5H26.8574" stroke="#006838" stroke-width="1.5" stroke-linecap="round" stroke-linejoin="round"/>
<path d="M10.8574 17.167H26.4474C26.5631 17.1671 26.6751 17.1271 26.7646 17.0538C26.8541 16.9805 26.9154 16.8785 26.938 16.7651L28.738 7.76512C28.7526 7.69255 28.7508 7.61765 28.7329 7.54585C28.7149 7.47404 28.6813 7.40711 28.6344 7.34989C28.5874 7.29267 28.5284 7.24658 28.4614 7.21495C28.3945 7.18332 28.3214 7.16694 28.2474 7.16699H8.85742" stroke="#006838" stroke-width="1.5" stroke-linecap="round" stroke-linejoin="round"/>
<circle cx="26.5238" cy="6.83337" r="6.33337" fill="#7DC242"/>
<path d="M26.5627 9.75879V4.75879H25.8187V3.92679H27.4827V9.75879H26.5627Z" fill="white"/>
</svg>
