<svg width="22" height="19" viewBox="0 0 22 19" fill="none" xmlns="http://www.w3.org/2000/svg">
<g clip-path="url(#clip0_284_743)">
<path d="M19.7773 4.45312H17.2737C17.6608 3.98763 17.8906 3.40928 17.8906 2.7832C17.8906 1.24854 16.5107 0 14.8145 0C13.7927 0 13.0393 0.331201 12.4434 1.04229C11.9448 1.63723 11.5803 2.46789 11.123 3.51741C10.6658 2.46785 10.3013 1.63723 9.80271 1.04229C9.2068 0.331201 8.45338 0 7.43164 0C5.73544 0 4.35547 1.24854 4.35547 2.7832C4.35547 3.40928 4.58528 3.98763 4.97238 4.45312H2.46875C1.45103 4.45312 0.623047 5.20225 0.623047 6.12305V7.23633C0.623047 7.962 1.13742 8.58073 1.85352 8.81051V17.3301C1.85352 18.2509 2.6815 19 3.69922 19H18.5469C19.5646 19 20.3926 18.2509 20.3926 17.3301V8.81051C21.1087 8.58073 21.623 7.962 21.623 7.23633V6.12305C21.623 5.20225 20.7951 4.45312 19.7773 4.45312ZM12.2524 3.96105C13.1949 1.79765 13.5532 1.11328 14.8145 1.11328C15.8322 1.11328 16.6602 1.86241 16.6602 2.7832C16.6602 3.704 15.8322 4.45312 14.8145 4.45312H12.0372C12.1125 4.28187 12.1844 4.11699 12.2524 3.96105ZM7.43164 1.11328C8.69291 1.11328 9.05122 1.79765 9.99372 3.96105C10.0616 4.11699 10.1335 4.28187 10.2089 4.45312H7.43164C6.41392 4.45312 5.58594 3.704 5.58594 2.7832C5.58594 1.86241 6.41392 1.11328 7.43164 1.11328ZM8.66211 17.8867H3.69922C3.35998 17.8867 3.08398 17.637 3.08398 17.3301V8.90625H8.66211V17.8867ZM8.66211 7.79297H2.46875C2.12951 7.79297 1.85352 7.54326 1.85352 7.23633V6.12305C1.85352 5.81612 2.12951 5.56641 2.46875 5.56641H8.66211V7.79297ZM12.3535 17.8867H9.89258V5.56641C10.0215 5.56641 11.6464 5.56641 12.3535 5.56641V17.8867ZM19.1621 17.3301C19.1621 17.637 18.8861 17.8867 18.5469 17.8867H13.584V8.90625H19.1621V17.3301ZM20.3926 7.23633C20.3926 7.54326 20.1166 7.79297 19.7773 7.79297H13.584V5.56641H19.7773C20.1166 5.56641 20.3926 5.81612 20.3926 6.12305V7.23633Z" fill="white"/>
</g>
<defs>
<clipPath id="clip0_284_743">
<rect width="21" height="19" fill="white" transform="translate(0.623047)"/>
</clipPath>
</defs>
</svg>
