<svg width="21" height="23" viewBox="0 0 21 23" fill="none" xmlns="http://www.w3.org/2000/svg">
<g clip-path="url(#clip0_746_4521)">
<path d="M1.3667 5.10584L1.3667 17.2123C1.3667 17.5838 1.64233 17.8848 1.98193 17.8848L10.5649 17.8848C8.81641 16.6541 9.54513 17.1671 7.15647 15.4855C6.61301 15.1028 6.28858 14.4523 6.28858 13.7448C6.28857 12.4773 7.34546 10.9506 9.02103 10.9506C9.7642 10.9582 10.5012 11.0907 11.2133 11.3491L11.2133 10.5522C11.2133 8.71235 12.6865 7.28428 14.3559 7.50646L15.5495 7.66504L15.5495 4.24064C15.5495 3.95404 15.6229 3.67283 15.7611 3.42891L17.1224 1.02783C17.3762 0.57942 17.0807 0.000467531 16.5995 0.000467553L6.03633 0.000468014C3.46137 0.000468127 1.3667 2.29103 1.3667 5.10584ZM9.97998 3.45047L9.97998 9.06525C9.97998 9.43676 9.70477 9.73774 9.36475 9.73774C9.02514 9.73774 8.74951 9.43676 8.74951 9.06525L8.74951 3.45047C8.74951 3.07896 9.02514 2.77799 9.36475 2.77799C9.70477 2.77799 9.97998 3.07896 9.97998 3.45047ZM7.51904 3.45047L7.51904 9.06525C7.51904 9.43676 7.24383 9.73774 6.90381 9.73774C6.5642 9.73774 6.28857 9.43676 6.28857 9.06525L6.28857 3.45047C6.28857 3.07896 6.5642 2.77799 6.90381 2.77799C7.24383 2.77799 7.51904 3.07896 7.51904 3.45047ZM5.05811 3.45047L5.05811 14.5215C5.05811 14.8934 4.78289 15.1944 4.44287 15.1944C4.10326 15.1944 3.82764 14.8934 3.82764 14.5215L3.82764 3.45047C3.82764 3.07896 4.10326 2.77799 4.44287 2.77799C4.78289 2.77799 5.05811 3.07896 5.05811 3.45047Z" fill="white"/>
<path d="M12.4437 10.5519L12.4437 12.3546C12.4437 12.8518 11.9659 13.1724 11.5631 12.9561C10.7813 12.5394 9.91233 12.3072 9.0095 12.298L8.99391 12.298C8.13833 12.298 7.55841 13.0769 7.52104 13.6901C7.50299 13.9511 7.6162 14.2067 7.82168 14.3514C11.8647 17.1976 11.6393 17.0155 11.8445 17.2412C11.9414 17.2325 11.5175 17.2354 18.786 17.2354C18.9633 16.7185 19.361 16.2898 19.361 15.2979L19.361 10.896C19.361 10.1157 18.8278 9.45715 18.1187 9.36326L14.2078 8.84397C13.2702 8.71908 12.4437 9.51914 12.4437 10.5519Z" fill="white"/>
<path d="M11.3794 19.2442L11.3794 22.3385C11.3794 22.7041 11.6497 23 11.9819 23L19.0309 23C19.3605 23 19.6334 22.7076 19.6334 22.3385L19.6334 22.331C19.614 20.4139 19.6211 21.1057 19.6014 19.2368C19.5977 18.8749 19.329 18.5827 18.9989 18.5827L11.9819 18.5827C11.6497 18.5827 11.3794 18.879 11.3794 19.2442Z" fill="white"/>
</g>
<defs>
<clipPath id="clip0_746_4521">
<rect width="23" height="21" fill="white" transform="translate(1.00536e-06 23) rotate(-90)"/>
</clipPath>
</defs>
</svg>
