<svg width="75" height="75" viewBox="0 0 75 75" fill="none" xmlns="http://www.w3.org/2000/svg">
<g clip-path="url(#clip0_426_1169)">
<path d="M38.5986 68.4082H5.63965C3.81947 68.4082 2.34375 69.8839 2.34375 71.7041C2.34375 73.5243 3.81947 75 5.63965 75H38.5986C40.4188 75 41.8945 73.5243 41.8945 71.7041C41.8945 69.8839 40.4188 68.4082 38.5986 68.4082Z" fill="url(#paint0_linear_426_1169)"/>
<path d="M62.5797 22.1191H50.6836V24.198L46.2891 22.7331V17.2995C50.0765 16.3227 52.8809 12.8769 52.8809 8.78906C52.8809 3.94192 48.9389 0 44.0918 0C39.2447 0 35.3027 3.94192 35.3027 8.78906H39.6973C39.6973 6.36635 41.6691 4.39453 44.0918 4.39453C46.5145 4.39453 48.4863 6.36635 48.4863 8.78906C48.4863 11.2118 46.5145 13.1836 44.0918 13.1836H41.8945V22.7331L37.5 24.198V22.1191H25.6039L15.5273 32.1957V48.4863H24.3164V53.0273H38.5986C42.8387 53.0273 46.2891 56.4777 46.2891 60.7178C46.2891 62.8704 45.3941 64.8136 43.9636 66.2109C45.3941 67.6083 46.2891 69.5515 46.2891 71.7041C46.2891 72.888 45.9978 73.9969 45.5177 75H63.8672V48.4863H72.6562V32.1957L62.5797 22.1191ZM44.0918 35.3027C40.4955 35.3027 37.5738 32.4062 37.5114 28.8248L44.0918 26.6315L50.6721 28.8248C50.6098 32.4062 47.6881 35.3027 44.0918 35.3027Z" fill="url(#paint1_linear_426_1169)"/>
<path d="M38.5986 57.4219H5.63965C3.81947 57.4219 2.34375 58.8976 2.34375 60.7178C2.34375 62.538 3.81947 64.0137 5.63965 64.0137H38.5986C40.4188 64.0137 41.8945 62.538 41.8945 60.7178C41.8945 58.8976 40.4188 57.4219 38.5986 57.4219Z" fill="url(#paint2_linear_426_1169)"/>
</g>
<defs>
<linearGradient id="paint0_linear_426_1169" x1="22.1202" y1="-1.72033" x2="22.1202" y2="74.7859" gradientUnits="userSpaceOnUse">
<stop stop-color="#7DC242"/>
<stop offset="1" stop-color="#006838"/>
</linearGradient>
<linearGradient id="paint1_linear_426_1169" x1="44.0933" y1="0" x2="44.0933" y2="86.2851" gradientUnits="userSpaceOnUse">
<stop stop-color="#7DC242"/>
<stop offset="1" stop-color="#006838"/>
</linearGradient>
<linearGradient id="paint2_linear_426_1169" x1="22.1191" y1="-1.19763" x2="22.1191" y2="74.071" gradientUnits="userSpaceOnUse">
<stop stop-color="#7DC242"/>
<stop offset="1" stop-color="#006838"/>
</linearGradient>
<clipPath id="clip0_426_1169">
<rect width="75" height="75" fill="white"/>
</clipPath>
</defs>
</svg>
