<svg width="75" height="75" viewBox="0 0 75 75" fill="none" xmlns="http://www.w3.org/2000/svg">
<path d="M74.3563 57.9363L66.3046 49.8838C65.4743 51.6312 63.8863 52.9739 61.8714 53.4526L60.7745 53.713L60.5139 54.8108C60.0688 56.6856 57.9749 60.2162 53.5677 59.8579L52.4425 59.7665L51.8557 60.7296C50.8678 62.3508 49.2096 63.4588 47.3661 63.7874L57.9363 74.3563C58.4747 74.8948 59.2536 75.1162 59.9948 74.9411C60.736 74.7662 61.3337 74.2198 61.5745 73.4975L64.555 64.5549L73.4976 61.5744C74.22 61.3336 74.7663 60.7359 74.9412 59.9947C75.1161 59.2537 74.8947 58.4747 74.3563 57.9363Z" fill="url(#paint0_linear_426_1174)"/>
<path d="M23.1442 60.7298L22.5574 59.7666L21.4322 59.858C17.025 60.2163 14.9311 56.6858 14.486 54.8109L14.2254 53.7132L13.1285 53.4527C11.1136 52.974 9.52556 51.6313 8.69529 49.8839L0.643626 57.9363C0.105149 58.4748 -0.116188 59.2536 0.0588603 59.9949C0.233763 60.7361 0.780149 61.3337 1.50246 61.5745L10.445 64.5551L13.4256 73.4976C13.6664 74.2201 14.264 74.7663 15.0052 74.9412C15.7465 75.1161 16.5253 74.8949 17.0638 74.3565L27.634 63.7875C25.7903 63.4588 24.1321 62.3509 23.1442 60.7298Z" fill="url(#paint1_linear_426_1174)"/>
<path d="M48.103 58.4428L50.0992 55.1675L53.9226 55.478C55.0017 55.5655 55.9876 54.8513 56.238 53.7956L57.1244 50.0634L60.8555 49.1773C61.9109 48.9265 62.6256 47.9428 62.5378 46.8615L62.2272 43.0391L65.5024 41.0431C66.4288 40.4786 66.8045 39.3225 66.3871 38.3212L64.9111 34.7812L67.4089 31.8709C68.1154 31.0478 68.1156 29.8321 67.4092 29.0089L64.9111 26.0975L66.3871 22.5572C66.8045 21.556 66.4288 20.3998 65.5024 19.8353L62.2272 17.8393L62.5378 14.0169C62.6255 12.9356 61.9109 11.9519 60.8555 11.7011L57.1244 10.8151L56.238 7.08279C55.9874 6.02708 55.0017 5.31296 53.9226 5.40041L50.0992 5.71096L48.103 2.43557C47.5385 1.50891 46.3817 1.13376 45.3808 1.5511L41.8411 3.02795L38.9309 0.52981C38.1078 -0.176685 36.8919 -0.176685 36.0688 0.52981L33.1587 3.02766L29.619 1.55081C28.6175 1.13318 27.4615 1.50876 26.8968 2.43528L24.9006 5.71067L21.0773 5.40012C19.9959 5.31355 19.0124 6.02678 18.7618 7.0825L17.8754 10.8148L14.1443 11.7011C13.0889 11.9519 12.3742 12.9356 12.4621 14.0169L12.7726 17.8393L9.49737 19.8353C8.571 20.3998 8.19527 21.5559 8.61275 22.5572L10.0887 26.0975L7.59058 29.0089C6.88423 29.8321 6.88438 31.0478 7.59088 31.8709L10.0887 34.7812L8.61304 38.3212C8.19556 39.3225 8.57129 40.4786 9.49766 41.0431L12.7729 43.0391L12.4624 46.8615C12.3746 47.9428 13.0892 48.9265 14.1446 49.1773L17.8757 50.0634L18.7621 53.7956C19.0128 54.8513 19.9963 55.5646 21.0775 55.478L24.9009 55.1675L26.8971 58.4428C27.4616 59.3694 28.6178 59.7449 29.6193 59.3273L33.159 57.8505L36.069 60.3482C36.8921 61.0547 38.1081 61.0547 38.9312 60.3482L41.8413 57.8505L45.3809 59.3273C46.3817 59.7447 47.5385 59.3694 48.103 58.4428ZM36.7001 46.1143C35.8423 46.9722 34.4508 46.9725 33.5927 46.1143L20.6483 33.1699C19.7902 32.3119 19.7902 30.9206 20.6483 30.0625L27.3052 23.4055C28.1631 22.5474 29.5545 22.5474 30.4126 23.4055L35.1463 28.1392L45.7638 17.5217C46.6218 16.6636 48.0131 16.6636 48.8712 17.5217L55.528 24.1785C56.3861 25.0366 56.3861 26.4278 55.528 27.2859L36.7001 46.1143Z" fill="url(#paint2_linear_426_1174)"/>
<path d="M36.7002 32.8003C35.8422 33.6584 34.4509 33.6584 33.5928 32.8003L28.859 28.0667L25.3096 31.6162L35.1466 41.453L50.8673 25.7323L47.3178 22.1829L36.7002 32.8003Z" fill="url(#paint3_linear_426_1174)"/>
<defs>
<linearGradient id="paint0_linear_426_1174" x1="61.1838" y1="-2.54796" x2="61.1838" y2="74.1843" gradientUnits="userSpaceOnUse">
<stop stop-color="#7DC242"/>
<stop offset="1" stop-color="#006838"/>
</linearGradient>
<linearGradient id="paint1_linear_426_1174" x1="13.8177" y1="-2.54772" x2="13.8177" y2="74.1844" gradientUnits="userSpaceOnUse">
<stop stop-color="#7DC242"/>
<stop offset="1" stop-color="#006838"/>
</linearGradient>
<linearGradient id="paint2_linear_426_1174" x1="37.5016" y1="-2.96707" x2="37.5016" y2="76.9022" gradientUnits="userSpaceOnUse">
<stop stop-color="#7DC242"/>
<stop offset="1" stop-color="#006838"/>
</linearGradient>
<linearGradient id="paint3_linear_426_1174" x1="38.0891" y1="-1.50256" x2="38.0891" y2="77.4249" gradientUnits="userSpaceOnUse">
<stop stop-color="#7DC242"/>
<stop offset="1" stop-color="#006838"/>
</linearGradient>
</defs>
</svg>
