<svg width="18" height="11" viewBox="0 0 18 11" fill="none" xmlns="http://www.w3.org/2000/svg">
<path d="M2.68554 5.2712C3.83983 2.86239 6.46457 0.69043 9.53497 0.69043C12.9897 0.69043 15.473 3.36928 16.3844 5.2712C16.4539 5.41629 16.4539 5.58477 16.3844 5.72987C15.2301 8.13868 12.6054 10.3106 9.53497 10.3106C6.08019 10.3106 3.59688 7.63167 2.68554 5.72987C2.61603 5.58477 2.61603 5.41629 2.68554 5.2712ZM9.53497 9.24172C12.019 9.24172 14.0785 7.61904 15.2866 5.50053C14.0836 3.39068 12.0253 1.75934 9.53497 1.75934C7.05114 1.75934 4.99139 3.38181 3.78328 5.50053C4.98634 7.61027 7.04461 9.24172 9.53497 9.24172ZM9.53497 2.82825C11.0215 2.82825 12.2309 4.02702 12.2309 5.50053C12.2309 6.97404 11.0215 8.17281 9.53497 8.17281C8.04842 8.17281 6.83905 6.97404 6.83905 5.50053C6.83905 4.02702 8.04842 2.82825 9.53497 2.82825ZM9.53497 7.1039C10.4268 7.1039 11.1525 6.38458 11.1525 5.50053C11.1525 4.61638 10.4268 3.89716 9.53497 3.89716C8.643 3.89716 7.91741 4.61638 7.91741 5.50053C7.91741 6.38458 8.643 7.1039 9.53497 7.1039Z" fill="#006838"/>
</svg>
