<svg width="65" height="64" viewBox="0 0 65 64" fill="none" xmlns="http://www.w3.org/2000/svg">
<g clip-path="url(#clip0_426_1159)">
<path d="M47.7344 15.125C46.6837 15.125 45.8301 15.9655 45.8301 17C45.8301 18.0345 46.6837 18.875 47.7344 18.875C48.785 18.875 49.6387 18.0345 49.6387 17C49.6387 15.9655 48.785 15.125 47.7344 15.125Z" fill="url(#paint0_linear_426_1159)"/>
<path d="M57.2559 0V3.875C57.2559 5.94225 58.9649 7.625 61.0645 7.625H65V0H57.2559Z" fill="url(#paint1_linear_426_1159)"/>
<path d="M17.2656 15.125C16.215 15.125 15.3613 15.9655 15.3613 17C15.3613 18.0345 16.215 18.875 17.2656 18.875C18.3163 18.875 19.1699 18.0345 19.1699 17C19.1699 15.9655 18.3163 15.125 17.2656 15.125Z" fill="url(#paint2_linear_426_1159)"/>
<path d="M53.4473 3.875V0H11.5527V3.875C11.5527 8.01138 8.13655 11.375 3.93555 11.375H0V22.625H3.93555C8.13655 22.625 11.5527 25.9886 11.5527 30.125V33.875H53.4473V30.125C53.4473 25.9886 56.8634 22.625 61.0645 22.625H65V11.375H61.0645C56.8634 11.375 53.4473 8.01138 53.4473 3.875ZM17.2656 22.625C14.1154 22.625 11.5527 20.1017 11.5527 17C11.5527 13.8983 14.1154 11.375 17.2656 11.375C20.4158 11.375 22.9785 13.8983 22.9785 17C22.9785 20.1017 20.4158 22.625 17.2656 22.625ZM32.4796 15.6744C35.6298 15.6744 38.1925 18.1976 38.1925 21.2994C38.1925 23.7331 36.6057 25.7905 34.4043 26.5726V30.125H30.5957V26.5851C28.3734 25.8143 26.7667 23.7479 26.7667 21.2994H30.5753C30.5753 22.3339 31.4289 23.1744 32.4796 23.1744C33.5302 23.1744 34.3839 22.3339 34.3839 21.2994C34.3839 20.2649 33.5302 19.4244 32.4796 19.4244C29.3293 19.4244 26.7667 16.9011 26.7667 13.7994C26.7667 11.3507 28.3734 9.2845 30.5957 8.51363V3.875H34.4043V8.52612C36.6057 9.30825 38.1925 11.3656 38.1925 13.7994H34.3839C34.3839 12.7649 33.5302 11.9244 32.4796 11.9244C31.4289 11.9244 30.5753 12.7649 30.5753 13.7994C30.5753 14.8339 31.4289 15.6744 32.4796 15.6744ZM47.7344 22.625C44.5842 22.625 42.0215 20.1017 42.0215 17C42.0215 13.8983 44.5842 11.375 47.7344 11.375C50.8846 11.375 53.4473 13.8983 53.4473 17C53.4473 20.1017 50.8846 22.625 47.7344 22.625Z" fill="url(#paint3_linear_426_1159)"/>
<path d="M7.74414 30.125C7.74414 28.0577 6.0351 26.375 3.93555 26.375H0V33.875H7.74414V30.125Z" fill="url(#paint4_linear_426_1159)"/>
<path d="M57.2559 30.125V33.875H65V26.375H61.0645C58.9649 26.375 57.2559 28.0577 57.2559 30.125Z" fill="url(#paint5_linear_426_1159)"/>
<path d="M7.74414 3.875V0H0V7.625H3.93555C6.0351 7.625 7.74414 5.94225 7.74414 3.875Z" fill="url(#paint6_linear_426_1159)"/>
<path d="M63.8956 42.125C62.1436 39.6875 58.3984 39.3125 55.8467 40.9625C55.0154 41.5009 46.1129 47.271 45.2967 47.7873C44.2305 50.5998 41.4501 52.6249 38.2128 52.6249H24.8828V48.8749C36.9189 48.8749 30.5935 48.8749 38.2129 48.8749C40.3076 48.8749 42.0215 47.1874 42.0215 45.1249C42.0215 43.0624 40.3076 41.3749 38.2129 41.3749H34.4043C32.5828 41.3749 32.3216 40.3566 30.5957 39.2749C25.6445 35.8623 18.8651 36.1623 14.1807 40.1373L12.7334 41.375H0V60.125L13.1522 60.0875L36.8037 64L65 43.6625L63.9337 42.1624L63.8956 42.125Z" fill="url(#paint7_linear_426_1159)"/>
</g>
<defs>
<linearGradient id="paint0_linear_426_1159" x1="47.7344" y1="0.373828" x2="47.7344" y2="64.4038" gradientUnits="userSpaceOnUse">
<stop stop-color="#7DC242"/>
<stop offset="1" stop-color="#006838"/>
</linearGradient>
<linearGradient id="paint1_linear_426_1159" x1="61.1281" y1="-0.371619" x2="59.0094" y2="63.8506" gradientUnits="userSpaceOnUse">
<stop stop-color="#7DC242"/>
<stop offset="1" stop-color="#006838"/>
</linearGradient>
<linearGradient id="paint2_linear_426_1159" x1="17.2656" y1="0.373828" x2="17.2656" y2="64.4038" gradientUnits="userSpaceOnUse">
<stop stop-color="#7DC242"/>
<stop offset="1" stop-color="#006838"/>
</linearGradient>
<linearGradient id="paint3_linear_426_1159" x1="32.5018" y1="-1.65096" x2="30.8579" y2="66.0754" gradientUnits="userSpaceOnUse">
<stop stop-color="#7DC242"/>
<stop offset="1" stop-color="#006838"/>
</linearGradient>
<linearGradient id="paint4_linear_426_1159" x1="3.87207" y1="-0.461347" x2="3.87207" y2="64.9606" gradientUnits="userSpaceOnUse">
<stop stop-color="#7DC242"/>
<stop offset="1" stop-color="#006838"/>
</linearGradient>
<linearGradient id="paint5_linear_426_1159" x1="61.1279" y1="-0.461347" x2="61.1279" y2="64.9606" gradientUnits="userSpaceOnUse">
<stop stop-color="#7DC242"/>
<stop offset="1" stop-color="#006838"/>
</linearGradient>
<linearGradient id="paint6_linear_426_1159" x1="3.87228" y1="-0.371619" x2="1.76032" y2="63.6446" gradientUnits="userSpaceOnUse">
<stop stop-color="#7DC242"/>
<stop offset="1" stop-color="#006838"/>
</linearGradient>
<linearGradient id="paint7_linear_426_1159" x1="32.5" y1="-1.23147" x2="32.5017" y2="63.1206" gradientUnits="userSpaceOnUse">
<stop stop-color="#7DC242"/>
<stop offset="1" stop-color="#006838"/>
</linearGradient>
<clipPath id="clip0_426_1159">
<rect width="65" height="64" fill="white"/>
</clipPath>
</defs>
</svg>
