<svg width="149" height="54" viewBox="0 0 149 54" fill="none" xmlns="http://www.w3.org/2000/svg">
<path fill-rule="evenodd" clip-rule="evenodd" d="M18.992 2.36624C9.34407 13.6966 0.0935125 27.7472 0.000753098 38.2495C-0.0353743 42.2011 1.22615 45.6507 4.25207 48.2636C8.60688 52.0267 13.405 53.3537 18.1797 53.3615C25.1571 53.3713 32.0858 50.5563 37.5107 48.3857C46.647 44.7319 147.641 0.874281 147.641 0.874281C148.615 0.386073 148.432 -0.22223 147.213 0.081435C146.721 0.204463 37.2656 29.867 37.2656 29.867C35.1924 30.4534 33.05 30.7601 30.8955 30.779C22.4837 30.8288 14.9985 26.1595 15.059 16.3202C15.0825 12.4702 16.261 7.82733 18.992 2.36624Z" fill="black"/>
</svg>
