<svg width="279" height="29" viewBox="0 0 279 29" fill="none" xmlns="http://www.w3.org/2000/svg">
<path d="M31.6428 15.9355H41.4889V19.4207H31.6428V15.9355Z" fill="url(#paint0_linear_340_1101)"/>
<path d="M51.232 6.42038H44.3262V2.74805H62.4112V6.42154H55.488V25.9826H51.232V6.42038Z" fill="url(#paint1_linear_340_1101)"/>
<path d="M65.9839 2.74805H70.2398V12.6569H81.9658V2.74805H86.2564V25.9826H81.9658V16.313H70.2398V25.9826H65.9839V2.74805Z" fill="url(#paint2_linear_340_1101)"/>
<path d="M100.838 17.9007H95.9151V25.9815H91.6592V2.74805H101.693C102.866 2.74805 103.946 2.93062 104.932 3.29462C105.917 3.65977 106.769 4.17399 107.487 4.84075C108.205 5.50634 108.764 6.30714 109.163 7.24082C109.562 8.1745 109.76 9.20525 109.76 10.3331C109.76 11.1766 109.652 11.9647 109.435 12.6996C109.219 13.4345 108.908 14.0978 108.504 14.6895C108.099 15.2823 107.609 15.7999 107.034 16.2437C106.458 16.6874 105.818 17.0468 105.111 17.3195L110.29 25.9815H105.402L100.837 17.9007H100.838ZM101.556 14.2272C102.115 14.2272 102.633 14.1336 103.111 13.9453C103.59 13.7569 104.005 13.4958 104.359 13.1595C104.712 12.8233 104.991 12.4165 105.197 11.9381C105.402 11.4597 105.504 10.9305 105.504 10.3492C105.504 9.76801 105.402 9.23876 105.197 8.76037C104.992 8.28197 104.712 7.86944 104.359 7.52162C104.005 7.1738 103.584 6.90456 103.094 6.71042C102.604 6.51745 102.08 6.42038 101.521 6.42038H95.9151V14.2284H101.556V14.2272Z" fill="url(#paint3_linear_340_1101)"/>
<path d="M113.795 2.74805H129.726V6.43771H118.051V12.6569H128.137V16.313H118.051V22.3092H129.88V25.9826H113.795V2.74805Z" fill="url(#paint4_linear_340_1101)"/>
<path d="M148.666 21.5559H137.948L136.119 25.9805H131.623L141.297 2.72852H145.333L155.007 25.9805H150.495L148.666 21.5559ZM139.452 17.8997H147.144L143.453 8.93035L143.316 8.33293H143.299L143.162 8.93035L139.453 17.8997H139.452Z" fill="url(#paint5_linear_340_1101)"/>
<path d="M158.119 2.74805H167.144C168.91 2.74805 170.545 3.00111 172.049 3.5084C173.554 4.01568 174.853 4.76101 175.947 5.7467C177.041 6.73238 177.899 7.94455 178.519 9.38552C179.14 10.8265 179.451 12.4801 179.451 14.3486C179.451 16.0796 179.183 17.6604 178.648 19.0898C178.113 20.5192 177.323 21.7441 176.28 22.7633C175.237 23.7825 173.956 24.574 172.434 25.1379C170.913 25.7018 169.172 25.9838 167.212 25.9838H158.119V2.74805ZM167.076 22.3092C168.375 22.3092 169.528 22.13 170.537 21.7707C171.545 21.4113 172.394 20.8936 173.084 20.2165C173.773 19.5393 174.296 18.7131 174.649 17.739C175.001 16.7648 175.178 15.6578 175.178 14.4156C175.178 13.1734 175.013 12.1322 174.682 11.1524C174.351 10.1724 173.85 9.33237 173.178 8.6321C172.505 7.93184 171.662 7.38758 170.648 7.00047C169.634 6.61336 168.443 6.41923 167.076 6.41923H162.392V22.3092H167.076Z" fill="url(#paint6_linear_340_1101)"/>
<path d="M18.578 18.5835L18.4023 18.9059L20.7921 21.0934L20.2533 21.6654C19.2972 22.6811 18.245 23.5131 17.1282 24.1383C16.0945 24.716 14.9592 25.1239 13.7521 25.3504C12.1404 25.6532 10.5437 25.4983 8.87187 24.879C8.02902 24.5658 7.21507 24.0967 6.38608 23.4415C5.02641 22.3691 3.97429 20.9524 3.25861 19.2318C2.8551 18.2623 2.59149 17.2177 2.45391 16.0379C2.28626 14.598 2.34638 13.402 2.64468 12.2754C2.66202 12.2072 2.67936 12.1402 2.69555 12.072L2.73833 11.8941L0.891905 11.8467L0.869938 11.9738C0.827159 12.228 0.79941 12.4383 0.785536 12.6348C0.709229 13.6678 0.644483 14.6789 0.66645 15.7016C0.68148 16.4423 0.815598 17.1738 0.95087 17.8602C1.19598 19.0954 1.67002 20.3111 2.39957 21.5764C2.92679 22.4893 3.57309 23.3525 4.31883 24.1406C5.3698 25.251 6.60807 26.194 7.99896 26.9439C9.01524 27.4917 10.176 27.9181 11.5473 28.2474C12.0676 28.3733 12.537 28.445 12.9821 28.4692C13.4064 28.4924 13.8354 28.4993 14.2516 28.4993C14.5799 28.4993 14.9002 28.4947 15.2031 28.4912C15.6355 28.4854 16.083 28.4796 16.5524 28.3918C17.3536 28.2416 18.1815 28.0868 18.97 27.8383C19.7654 27.5876 20.5146 27.2744 21.1991 26.9058C21.8281 26.5672 22.4304 26.1605 23.0131 25.7664C23.1715 25.659 23.3311 25.5515 23.4906 25.4452C23.7184 25.2938 23.9346 25.1216 24.1439 24.9552C24.2028 24.9078 24.263 24.8605 24.3219 24.8142L26.6886 27.2652L26.7707 26.7579C26.7915 26.6365 26.8077 26.5372 26.8193 26.4366C26.8493 26.1813 26.8771 25.927 26.906 25.6717C26.9522 25.2545 26.9985 24.8374 27.0517 24.4202C27.0991 24.04 27.1511 23.6599 27.2031 23.2797C27.269 22.799 27.3349 22.3171 27.3928 21.8364C27.4482 21.3776 27.4933 20.9177 27.5384 20.459C27.5662 20.1701 27.5951 19.8801 27.6263 19.5912C27.6656 19.2272 27.7084 18.8632 27.7535 18.4853L27.8379 17.7712L18.5769 18.587L18.578 18.5835Z" fill="url(#paint7_linear_340_1101)"/>
<path d="M10.0893 9.76288L10.4004 9.7675L8.2036 6.96529C8.38975 6.82663 8.57358 6.68796 8.7551 6.55161C9.27538 6.15988 9.76561 5.7901 10.279 5.43419C11.2016 4.79171 12.1947 4.31793 13.2307 4.02789C13.9475 3.82798 14.7106 3.62807 15.4633 3.56682C16.9016 3.45243 18.1976 3.62345 19.4255 4.0926C20.0105 4.31447 20.5655 4.58371 21.0742 4.89339L21.2049 4.97313L22.2582 3.11847L22.1541 3.03989C21.7124 2.70825 21.2997 2.43092 20.8892 2.19172C20.0036 1.6775 19.0659 1.25919 18.1005 0.948352C17.0854 0.621332 16.1466 0.41911 15.2286 0.328978L14.9141 0.297778C14.4158 0.248089 13.9024 0.196089 13.3949 0.221511C11.9496 0.303555 10.8582 0.466488 9.85463 0.751909C8.71464 1.07777 7.80472 1.42906 6.99308 1.85777C6.51558 2.10852 6.05889 2.37545 5.5756 2.65741C5.40449 2.75678 5.23222 2.85847 5.05763 2.95901C4.44139 2.18132 3.81243 1.3863 3.18693 0.595909L2.99501 0.353244L0.85376 9.61497L1.03759 9.61843C4.05638 9.66581 7.04164 9.71319 10.0893 9.76288Z" fill="url(#paint8_linear_340_1101)"/>
<path d="M21.9866 4.18945L22.7404 9.21378L24.0261 8.18765C24.1405 8.36561 24.2469 8.54472 24.3417 8.72036C24.7337 9.44258 25.0713 10.2376 25.3464 11.0823C25.506 11.5769 25.6251 12.1408 25.7187 12.848L7.63257 17.8388L7.68807 18.1289L27.3698 15.9299H27.5085L27.5177 15.7912C27.5374 15.5 27.5536 15.2123 27.5675 14.9234C27.6287 13.717 27.5594 12.6573 27.3547 11.6855C27.1362 10.6524 26.8402 9.71991 26.4471 8.83592C26.1685 8.21192 25.8413 7.60641 25.4748 7.03557L26.7142 6.04758L21.9854 4.18945H21.9866Z" fill="url(#paint9_linear_340_1101)"/>
<path d="M260.426 26.3977V3.60254H268.958C270.89 3.60254 272.551 3.91733 273.941 4.54691C275.33 5.15478 276.394 6.04488 277.132 7.2172C277.892 8.36781 278.272 9.76808 278.272 11.418C278.272 13.0245 277.892 14.4139 277.132 15.5863C276.394 16.7369 275.33 17.627 273.941 18.2566C272.551 18.8861 270.89 19.2009 268.958 19.2009H261.761L262.836 18.0612V26.3977H260.426ZM262.836 18.2566L261.761 17.0842H268.893C271.173 17.0842 272.898 16.5958 274.071 15.6188C275.265 14.6202 275.862 13.2199 275.862 11.418C275.862 9.5944 275.265 8.18328 274.071 7.18463C272.898 6.18599 271.173 5.68667 268.893 5.68667H261.761L262.836 4.54691V18.2566Z" fill="#656565"/>
<path d="M243.074 26.5922C241.359 26.5922 239.763 26.3099 238.287 25.7455C236.832 25.1593 235.562 24.3452 234.477 23.3031C233.413 22.2394 232.577 21.0128 231.969 19.6234C231.383 18.2122 231.09 16.6708 231.09 14.9992C231.09 13.3276 231.383 11.797 231.969 10.4076C232.577 8.99648 233.413 7.76989 234.477 6.72783C235.562 5.66405 236.832 4.84994 238.287 4.28549C239.741 3.69933 241.337 3.40625 243.074 3.40625C244.789 3.40625 246.374 3.69933 247.828 4.28549C249.283 4.84994 250.542 5.6532 251.606 6.69526C252.691 7.73732 253.527 8.96392 254.113 10.375C254.721 11.7862 255.025 13.3276 255.025 14.9992C255.025 16.6708 254.721 18.2122 254.113 19.6234C253.527 21.0345 252.691 22.2611 251.606 23.3031C250.542 24.3452 249.283 25.1593 247.828 25.7455C246.374 26.3099 244.789 26.5922 243.074 26.5922ZM243.074 24.4429C244.442 24.4429 245.701 24.2149 246.851 23.759C248.024 23.2814 249.033 22.6193 249.88 21.7726C250.748 20.9042 251.421 19.9056 251.899 18.7767C252.376 17.6261 252.615 16.3669 252.615 14.9992C252.615 13.6315 252.376 12.3832 251.899 11.2543C251.421 10.1037 250.748 9.10503 249.88 8.25836C249.033 7.38997 248.024 6.72783 246.851 6.27192C245.701 5.79431 244.442 5.5555 243.074 5.5555C241.706 5.5555 240.436 5.79431 239.264 6.27192C238.091 6.72783 237.071 7.38997 236.203 8.25836C235.356 9.10503 234.683 10.1037 234.184 11.2543C233.706 12.3832 233.467 13.6315 233.467 14.9992C233.467 16.3452 233.706 17.5935 234.184 18.7441C234.683 19.8947 235.356 20.9042 236.203 21.7726C237.071 22.6193 238.091 23.2814 239.264 23.759C240.436 24.2149 241.706 24.4429 243.074 24.4429Z" fill="#656565"/>
<path d="M223.292 3.60254H225.669V26.3977H223.292V3.60254ZM209.028 26.3977H206.619V3.60254H209.028V26.3977ZM223.52 15.8793H208.768V13.7627H223.52V15.8793Z" fill="#656565"/>
<path d="M192.869 26.5922C191.176 26.5922 189.547 26.3208 187.984 25.778C186.443 25.2136 185.249 24.4972 184.402 23.6288L185.346 21.7726C186.15 22.5542 187.224 23.2163 188.57 23.759C189.938 24.2801 191.371 24.5406 192.869 24.5406C194.302 24.5406 195.463 24.3669 196.353 24.0196C197.265 23.6505 197.927 23.162 198.34 22.5542C198.774 21.9463 198.991 21.2733 198.991 20.5352C198.991 19.6451 198.73 18.9286 198.209 18.3859C197.71 17.8432 197.048 17.4198 196.223 17.1159C195.398 16.7902 194.486 16.508 193.488 16.2692C192.489 16.0304 191.49 15.7807 190.492 15.5202C189.493 15.238 188.57 14.8689 187.724 14.413C186.899 13.9571 186.226 13.3601 185.705 12.622C185.205 11.8622 184.956 10.8744 184.956 9.65863C184.956 8.52973 185.249 7.49852 185.835 6.565C186.443 5.60978 187.365 4.84994 188.603 4.28549C189.84 3.69933 191.425 3.40625 193.357 3.40625C194.638 3.40625 195.908 3.59078 197.167 3.95985C198.427 4.3072 199.512 4.79567 200.424 5.42525L199.61 7.34655C198.633 6.69526 197.591 6.21765 196.484 5.91371C195.398 5.60978 194.345 5.45781 193.325 5.45781C191.957 5.45781 190.828 5.64234 189.938 6.01141C189.048 6.38047 188.386 6.87979 187.952 7.50937C187.539 8.11724 187.333 8.81195 187.333 9.5935C187.333 10.4836 187.583 11.2 188.082 11.7428C188.603 12.2855 189.276 12.7088 190.101 13.0128C190.948 13.3167 191.87 13.5881 192.869 13.8269C193.868 14.0657 194.855 14.3262 195.832 14.6084C196.831 14.8907 197.743 15.2597 198.568 15.7156C199.414 16.1498 200.087 16.736 200.587 17.4741C201.108 18.2122 201.368 19.1783 201.368 20.3723C201.368 21.4795 201.064 22.5107 200.456 23.466C199.849 24.3995 198.915 25.1593 197.656 25.7455C196.418 26.3099 194.823 26.5922 192.869 26.5922Z" fill="#656565"/>
<defs>
<linearGradient id="paint0_linear_340_1101" x1="36.5658" y1="1.61484" x2="36.5658" y2="25.2285" gradientUnits="userSpaceOnUse">
<stop stop-color="#7DC242"/>
<stop offset="1" stop-color="#006838"/>
</linearGradient>
<linearGradient id="paint1_linear_340_1101" x1="53.3687" y1="1.61561" x2="53.3687" y2="25.2292" gradientUnits="userSpaceOnUse">
<stop stop-color="#7DC242"/>
<stop offset="1" stop-color="#006838"/>
</linearGradient>
<linearGradient id="paint2_linear_340_1101" x1="76.1213" y1="1.61561" x2="76.1213" y2="25.2292" gradientUnits="userSpaceOnUse">
<stop stop-color="#7DC242"/>
<stop offset="1" stop-color="#006838"/>
</linearGradient>
<linearGradient id="paint3_linear_340_1101" x1="100.975" y1="1.61561" x2="100.975" y2="25.2292" gradientUnits="userSpaceOnUse">
<stop stop-color="#7DC242"/>
<stop offset="1" stop-color="#006838"/>
</linearGradient>
<linearGradient id="paint4_linear_340_1101" x1="121.838" y1="1.61561" x2="121.838" y2="25.2292" gradientUnits="userSpaceOnUse">
<stop stop-color="#7DC242"/>
<stop offset="1" stop-color="#006838"/>
</linearGradient>
<linearGradient id="paint5_linear_340_1101" x1="143.315" y1="1.61457" x2="143.315" y2="25.2282" gradientUnits="userSpaceOnUse">
<stop stop-color="#7DC242"/>
<stop offset="1" stop-color="#006838"/>
</linearGradient>
<linearGradient id="paint6_linear_340_1101" x1="168.786" y1="1.61561" x2="168.786" y2="25.2292" gradientUnits="userSpaceOnUse">
<stop stop-color="#7DC242"/>
<stop offset="1" stop-color="#006838"/>
</linearGradient>
<linearGradient id="paint7_linear_340_1101" x1="14.2504" y1="-0.179152" x2="14.2504" y2="28.2474" gradientUnits="userSpaceOnUse">
<stop stop-color="#7DC242"/>
<stop offset="1" stop-color="#006838"/>
</linearGradient>
<linearGradient id="paint8_linear_340_1101" x1="11.5554" y1="-0.178308" x2="11.5554" y2="28.2482" gradientUnits="userSpaceOnUse">
<stop stop-color="#7DC242"/>
<stop offset="1" stop-color="#006838"/>
</linearGradient>
<linearGradient id="paint9_linear_340_1101" x1="17.6116" y1="-0.178525" x2="17.6116" y2="28.248" gradientUnits="userSpaceOnUse">
<stop stop-color="#7DC242"/>
<stop offset="1" stop-color="#006838"/>
</linearGradient>
</defs>
</svg>
